<?xml version="1.0" ?>
<!-- Uploaded to: SVG Repo, www.svgrepo.com, Generator: SVG Repo Mixer Tools -->
<svg width="800px" height="800px" viewBox="0 0 128 128" xmlns="http://www.w3.org/2000/svg">
<defs>
<style>.cls-1{fill:#231f20;}</style>
</defs>
<g data-name="Eco Solar" id="Eco_Solar">
<path class="cls-1" d="M81.75,86a1,1,0,0,0,1.5,0l2.22-2.56a12.19,12.19,0,0,0,0-16.14l-2.22-2.56a1,1,0,0,0-1.5,0l-2.22,2.56a12.19,12.19,0,0,0,0,16.14ZM81,68.59,82.5,66.9,84,68.59a10.21,10.21,0,0,1,0,13.52L82.5,83.8,81,82.11A10.21,10.21,0,0,1,81,68.59Z"/>
<path class="cls-1" d="M84.25,90.45,84,93.21a1,1,0,0,0,.29.78,1,1,0,0,0,.71.29h.08l2.75-.21a10.32,10.32,0,0,0,9.54-9.54l.21-2.76a1,1,0,0,0-.29-.78,1,1,0,0,0-.78-.29l-2.76.21A10.32,10.32,0,0,0,84.25,90.45ZM94,82.91l1.59-.13-.12,1.6a8.31,8.31,0,0,1-7.7,7.69l-1.59.13.12-1.6A8.3,8.3,0,0,1,94,82.91Z"/>
<path class="cls-1" d="M77.13,94.07l2.75.21H80a1,1,0,0,0,.71-.29,1,1,0,0,0,.29-.78l-.21-2.76a10.32,10.32,0,0,0-9.54-9.54l-2.76-.21a1,1,0,0,0-.78.29,1,1,0,0,0-.29.78l.21,2.76A10.32,10.32,0,0,0,77.13,94.07ZM71.05,82.91a8.31,8.31,0,0,1,7.7,7.69l.12,1.6-1.59-.13a8.31,8.31,0,0,1-7.7-7.69l-.12-1.6Z"/>
<path class="cls-1" d="M113,56h0a1,1,0,0,0-.07-.34l0-.09,0-.07-19-33A1,1,0,0,0,93,22H35a1,1,0,0,0-.87.5h0l-19,33A1.09,1.09,0,0,0,15,56v49a1,1,0,0,0,1,1h96a1,1,0,0,0,1-1V56Zm-2.73-1H54.58L36.73,24H92.42ZM35,25,50.54,52H19.46Zm76,79H55V80a1,1,0,0,0-2,0v24H17V56.27L18.31,54H51.69l1.44,2.5a1,1,0,0,0,.24.26l.07.06a1.05,1.05,0,0,0,.3.15h0A1.15,1.15,0,0,0,54,57h57Z"/>
<path class="cls-1" d="M47.59,29.5l12.09,21a1,1,0,0,0,.87.5h38a1,1,0,0,0,.86-1.5l-12.09-21a1,1,0,0,0-.87-.5h-38a1,1,0,0,0-.86,1.5ZM55.94,40H67.63l5.19,9H61.12Zm19.18,9-5.18-9h9.69l5.19,9Zm12,0-5.18-9h9.69l5.19,9Zm3.36-11H80.79l-4.61-8h9.7Zm-16.6-8,4.6,8H68.79l-4.61-8Zm-12,0,4.6,8H55a1.29,1.29,0,0,0-.19,0l-4.63-8Z"/>
<path class="cls-1" d="M53,59V75a1,1,0,0,0,2,0V59a1,1,0,0,0-2,0Z"/>
</g>
</svg>